#tb 0: 1/1000
#media_type 0: audio
#codec_id 0: truehd
#sample_rate 0: 48000
#channel_layout 0: 60f
#channel_layout_name 0: 5.1(side)
0,         13,         13,        1,      368, 0x256aaaad
0,         14,         14,        1,      190, 0x7b975b90, F=0x0
0,         15,         15,        1,      178, 0xfdc85dc0, F=0x0
0,         16,         16,        1,      184, 0x3a605a1c, F=0x0
0,         17,         17,        1,      184, 0xf00e5aef, F=0x0
0,         18,         18,        1,      186, 0x95125c74, F=0x0
0,         18,         18,        1,      184, 0xc6ae624e, F=0x0
0,         19,         19,        1,      186, 0x5f9e5de9, F=0x0
0,         20,         20,        1,      188, 0x80135cc7, F=0x0
0,         21,         21,        1,      188, 0x10dc5a3d, F=0x0
0,         22,         22,        1,      188, 0x63ff5980, F=0x0
0,         23,         23,        1,      198, 0x42265ec5, F=0x0
0,         23,         23,        1,      210, 0x4d2f6d78, F=0x0
0,         24,         24,        1,      202, 0x44b6654f, F=0x0
0,         25,         25,        1,      192, 0x098e6271, F=0x0
0,         26,         26,        1,      194, 0x090f691d, F=0x0
0,         27,         27,        1,      382, 0x88b0ac79
0,         28,         28,        1,      196, 0xf0765d20, F=0x0
0,         28,         28,        1,      188, 0x72c65e8d, F=0x0
0,         29,         29,        1,      186, 0x913a5fcb, F=0x0
